<?xml version="1.0" encoding="utf-8"?>
<!-- Generator: Adobe Illustrator 16.0.0, SVG Export Plug-In . SVG Version: 6.00 Build 0)  -->
<!DOCTYPE svg PUBLIC "-//W3C//DTD SVG 1.1//EN" "http://www.w3.org/Graphics/SVG/1.1/DTD/svg11.dtd">
<svg version="1.1" id="Capa_1" xmlns="http://www.w3.org/2000/svg" xmlns:xlink="http://www.w3.org/1999/xlink" x="0px" y="0px"
	 width="240px" height="102.5px" viewBox="0 0 240 102.5" enable-background="new 0 0 240 102.5" xml:space="preserve">
<path fill="#959595" d="M36.53,3.26c-8.075,0-15.453,0.564-22.54,1.754c-1.25,0.201-2.157,1.28-2.157,2.539v88.225
	c0,1.431,1.16,2.58,2.58,2.58h11.522c1.421,0,2.581-1.149,2.581-2.58V63.086c2.188,0.252,4.476,0.302,6.693,0.302
	c12.378,0,22.73-3.77,29.143-10.583c5.05-5.202,7.61-12.219,7.61-20.876c0-8.448-3.096-15.767-8.67-20.595
	C57.336,5.971,48.334,3.26,36.53,3.26z M35.472,48.953c-2.782,0-5.081-0.15-6.955-0.443V18.037c1.874-0.262,4.656-0.484,8.275-0.484
	c8.437,0,18.487,2.591,18.487,14.91C55.279,46.807,42.87,48.953,35.472,48.953z"/>
<path fill="#959595" d="M111.679,3.26c-8.256,0-16.622,0.624-24.889,1.885c-1.26,0.181-2.196,1.27-2.196,2.55v87.821
	c0,1.31,0.987,2.419,2.288,2.56c6.269,0.715,13.405,1.079,21.219,1.079c18.114,0,32.398-4.708,41.289-13.589
	c8.9-8.76,13.608-21.401,13.608-36.552c0-14.374-4.516-25.796-13.397-33.94C141.073,7.12,128.664,3.26,111.679,3.26z
	 M110.349,84.719c-2.642,0-6.189-0.041-9.073-0.333V18.31c2.48-0.393,6.059-0.757,10.928-0.757c11.239,0,19.838,2.925,25.554,8.68
	c5.393,5.424,8.095,13.215,8.034,23.185C145.791,72.178,133.2,84.719,110.349,84.719z"/>
<path fill="#959595" d="M234.125,3.925h-48.084c-1.421,0-2.58,1.149-2.58,2.58v89.272c0,1.431,1.159,2.58,2.58,2.58h11.522
	c1.421,0,2.581-1.149,2.581-2.58V57.956h31.198c1.421,0,2.581-1.149,2.581-2.582v-9.535c0-1.421-1.16-2.581-2.581-2.581h-31.198
	V18.742h33.98c1.421,0,2.58-1.148,2.58-2.58V6.505C236.705,5.074,235.546,3.925,234.125,3.925z"/>
</svg>
