<?xml version="1.0" encoding="utf-8"?>
<!-- Generator: Adobe Illustrator 16.0.0, SVG Export Plug-In . SVG Version: 6.00 Build 0)  -->
<!DOCTYPE svg PUBLIC "-//W3C//DTD SVG 1.1//EN" "http://www.w3.org/Graphics/SVG/1.1/DTD/svg11.dtd">
<svg version="1.1" id="Capa_1" xmlns="http://www.w3.org/2000/svg" xmlns:xlink="http://www.w3.org/1999/xlink" x="0px" y="0px"
	 width="237px" height="141.588px" viewBox="0 0 237 141.588" enable-background="new 0 0 237 141.588" xml:space="preserve">
<path fill="#959595" d="M119.664,128.223c-32.018,0-58.057-26.022-58.057-58.039c0-31.999,26.039-58.038,58.057-58.038
	c31.999,0,58.037,26.039,58.037,58.038C177.701,102.2,151.663,128.223,119.664,128.223z"/>
<path fill="#959595" d="M119.664,26.049c-24.355,0-44.153,19.797-44.153,44.135c0,24.355,19.798,44.152,44.153,44.152
	c24.337,0,44.135-19.797,44.135-44.152C163.799,45.846,144.001,26.049,119.664,26.049z"/>
<path fill="#FFFFFF" d="M75.511,39.43c0-8.768,7.101-15.851,15.851-15.851c8.752,0,15.852,7.083,15.852,15.851
	c0,8.752-7.1,15.851-15.852,15.851C82.611,55.281,75.511,48.182,75.511,39.43z"/>
<g>
	<path fill="#959595" d="M119.664,135.174c-74.071,0-108.003-52.309-109.423-54.521l-1.866-2.972l1.271-3.27
		C9.91,73.718,37.369,5.723,119.664,5.723c76.663,0,108.497,65.452,109.802,68.243l1.47,3.07l-1.553,3.056
		C228.228,82.337,200.372,135.174,119.664,135.174z M24.078,76.161c7.925,10.551,38.29,45.127,95.586,45.127
		c62.082,0,88.815-34.048,95.586-44.549c-7.034-12.565-36.161-57.13-95.586-57.13C56.21,19.609,30.253,63.497,24.078,76.161z"/>
</g>
</svg>
