<?xml version="1.0" encoding="utf-8"?>
<!-- Generator: Adobe Illustrator 16.0.0, SVG Export Plug-In . SVG Version: 6.00 Build 0)  -->
<!DOCTYPE svg PUBLIC "-//W3C//DTD SVG 1.1//EN" "http://www.w3.org/Graphics/SVG/1.1/DTD/svg11.dtd">
<svg version="1.1" id="Capa_1" xmlns="http://www.w3.org/2000/svg" xmlns:xlink="http://www.w3.org/1999/xlink" x="0px" y="0px"
	 width="240px" height="234.252px" viewBox="0 0 240 234.252" enable-background="new 0 0 240 234.252" xml:space="preserve">
<path fill="#FFFFFF" stroke="#959595" stroke-width="11.1959" stroke-linecap="round" stroke-miterlimit="10" d="M132.047,177.083
	c0-27.757,22.496-50.267,50.24-50.267c27.771,0,50.294,22.51,50.294,50.267c0,27.731-22.522,50.267-50.294,50.267
	C154.543,227.349,132.047,204.814,132.047,177.083z"/>
<path fill="#FFFFFF" stroke="#757574" stroke-width="9.8661" stroke-linecap="round" stroke-linejoin="round" stroke-miterlimit="10" d="
	M199.385,86.144"/>
<path fill="#FFFFFF" stroke="#757574" stroke-width="9.8661" stroke-linecap="round" stroke-linejoin="round" stroke-miterlimit="10" d="
	M112.162,86.144"/>
<g>
	<path fill="#959595" d="M75.002,89.15c-13.845,0-25.079-11.247-25.079-25.078c0-13.832,11.234-25.093,25.079-25.093
		s25.079,11.261,25.079,25.093C100.081,77.903,88.847,89.15,75.002,89.15z M75.002,50.91c-7.257,0-13.161,5.904-13.161,13.162
		c0,7.257,5.904,13.161,13.161,13.161c7.258,0,13.175-5.904,13.175-13.161C88.177,56.814,82.26,50.91,75.002,50.91z"/>
</g>
<path fill="#959595" d="M135.246,164.905c0-3.594,0.328-7.092,0.956-10.509h-26.363c-0.232,0-0.751-0.082-1.107-0.137
	c-0.614-0.082-1.229-0.082-1.817,0l-0.479,0.082c-0.108,0.014-0.219,0.026-0.354,0.055c0,0,0,0-0.027,0h-0.11
	c-0.067-0.014-0.136-0.028-0.219-0.028c-0.163-0.013-0.424-0.026-0.573-0.026c-0.274,0-0.547,0.026-0.779,0.055H66.159
	c-2.392,0-4.318-1.94-4.318-4.305c0-0.355,0.027-0.697,0.123-1.054l19.708-34.139c0.327-0.424,0.655-0.902,0.929-1.503
	c0.027-0.083,0.083-0.165,0.11-0.246c0.081-0.138,0.163-0.288,0.245-0.438l0.014-0.04c1.107-1.695,3.35-2.447,5.371-1.544
	c0.328,0.15,0.642,0.341,0.93,0.587l10.222,17.727c1.054,1.857,3.034,2.992,5.167,2.992c2.132,0,4.1-1.135,5.166-2.992l19.94-34.496
	c0.56-0.711,0.874-1.394,1.052-1.805c0.082-0.204,0.219-0.424,0.342-0.628c0.027-0.067,0.082-0.137,0.097-0.205l0.108-0.219
	c1.558-2.446,4.291-3.977,7.217-3.977c1.202,0,2.35,0.245,3.471,0.752c0.766,0.341,1.53,0.833,2.215,1.503l19.871,34.399
	c2.732-2.979,11.563,4.441,14.869,2.05l-24.792-43.092c-0.259-0.396-0.532-0.779-0.833-1.106c-1.928-2.037-4.113-3.608-6.492-4.647
	c-2.638-1.188-5.439-1.776-8.309-1.776c-7.107,0-13.832,3.786-17.508,9.895c-0.068,0.11-0.137,0.219-0.206,0.342l-0.163,0.315
	c-0.219,0.409-0.424,0.778-0.588,1.133c-0.123,0.165-0.232,0.343-0.328,0.52l-13.257,22.865l-1.872,3.267l-5.467-9.498
	c-0.232-0.396-0.506-0.752-0.848-1.094c-1.488-1.599-3.225-2.843-5.166-3.704c-2.091-0.943-4.318-1.422-6.628-1.422
	c-5.672,0-10.988,3.021-13.927,7.899c-0.055,0.123-0.137,0.261-0.191,0.396l-0.027,0.027c-0.137,0.219-0.246,0.438-0.355,0.657
	c-0.149,0.19-0.272,0.368-0.355,0.56l-20.363,35.274c-0.191,0.314-0.328,0.628-0.451,0.957c-0.643,1.791-0.957,3.636-0.957,5.508
	c0,8.951,7.258,16.223,16.236,16.223H105c0.138,0,0.288,0,0.411-0.015c0.204,0.015,0.424,0.015,0.615,0.015c0.055,0,0.108,0,0.136,0
	c0.656,0,1.231-0.055,1.709-0.137c0.587,0.082,1.257,0.137,1.968,0.137h25.435C135.259,165.848,135.246,165.384,135.246,164.905z
	 M108.568,165.138v-0.014c1.448-1.08,2.392-2.802,2.392-4.742C110.96,162.336,110.017,164.058,108.568,165.138z"/>
<g>
	<path fill="#959595" d="M135.301,188.208H23.231V22.593h173.119v108.651c4.66-1.065,9.54,4.168,14.527,4.168
		c1.668,0,3.349,0.069,4.988,0.206V12.834c0-5.384-4.387-9.744-9.744-9.744h-29.548h-29.712h-2.256H49.745H23.669H13.487
		c-5.371,0-9.745,4.36-9.745,9.744v185.105c0,5.412,4.374,9.771,9.745,9.771h130.971
		C140.385,201.848,137.241,195.26,135.301,188.208z"/>
</g>
<path fill="none" stroke="#959595" stroke-width="7.9633" stroke-miterlimit="10" d="M207.57,175.033h-23.205v-23.207
	c0-1.12-0.903-2.022-2.051-2.022c-1.148,0-2.022,0.902-2.022,2.022v23.207h-23.207c-1.148,0-2.05,0.916-2.05,2.05
	c0,1.135,0.901,2.051,2.05,2.051h23.207v23.206c0,1.12,0.874,2.023,2.022,2.023c1.147,0,2.051-0.903,2.051-2.023v-23.206h23.205
	c1.148,0,2.022-0.916,2.022-2.051C209.593,175.949,208.719,175.033,207.57,175.033z"/>
</svg>
