<?xml version="1.0" encoding="utf-8"?>
<!-- Generator: Adobe Illustrator 16.0.0, SVG Export Plug-In . SVG Version: 6.00 Build 0)  -->
<!DOCTYPE svg PUBLIC "-//W3C//DTD SVG 1.1//EN" "http://www.w3.org/Graphics/SVG/1.1/DTD/svg11.dtd">
<svg version="1.1" id="Capa_1" xmlns="http://www.w3.org/2000/svg" xmlns:xlink="http://www.w3.org/1999/xlink" x="0px" y="0px"
	 width="263px" height="368.175px" viewBox="0 0 263 368.175" enable-background="new 0 0 263 368.175" xml:space="preserve">
<path fill="#FFFFFF" stroke="#757574" stroke-width="12.051" stroke-linecap="round" stroke-linejoin="round" stroke-miterlimit="10" d="
	M222.98,133.354"/>
<path fill="#FFFFFF" stroke="#757574" stroke-width="12.051" stroke-linecap="round" stroke-linejoin="round" stroke-miterlimit="10" d="
	M116.44,133.354"/>
<g>
	<path fill="#959595" d="M62.954,150.381c-14.005,0-25.374-11.386-25.374-25.373c0-13.99,11.369-25.375,25.374-25.375
		c14.007,0,25.375,11.384,25.375,25.375C88.329,138.995,76.961,150.381,62.954,150.381z M62.954,111.685
		c-7.344,0-13.32,5.978-13.32,13.323c0,7.345,5.977,13.32,13.32,13.32c7.346,0,13.323-5.975,13.323-13.32
		C76.277,117.663,70.3,111.685,62.954,111.685z"/>
</g>
<g>
	<path fill="none" stroke="#959595" stroke-width="12.0615" stroke-miterlimit="10" d="M98.746,68.267
		c2.839-10.301,13.489-16.344,23.805-13.506c10.283,2.871,16.478,13.572,13.455,23.839c-1.67,5.774-9.297,6.945-19.565,4.123
		c-8.413-2.354-18.211-0.501-18.429-8.797C97.978,72.055,98.196,70.152,98.746,68.267z"/>
</g>
<path fill="#959595" d="M197.505,287.201c-33.186,0-60.164-26.994-60.164-60.18s26.979-60.179,60.164-60.179
	c33.188,0,60.196,26.993,60.196,60.179S230.692,287.201,197.505,287.201z M197.505,178.893c-26.525,0-48.111,21.604-48.111,48.129
	s21.586,48.128,48.111,48.128s48.143-21.603,48.143-48.128S224.03,178.893,197.505,178.893z"/>
<g>
	<path fill="#959595" d="M137.341,227.021c0-3.64,0.334-7.18,0.969-10.634H98.196c-0.234,0-0.752-0.083-1.119-0.135
		c-0.617-0.1-1.236-0.1-1.838,0l-0.481,0.067c-0.117,0.016-0.219,0.05-0.368,0.067h-0.019h-0.114
		c-0.068-0.018-0.135-0.018-0.218-0.034c-0.168-0.018-0.434-0.018-0.434-0.018c-0.417,0-0.701,0.018-0.936,0.052H54.007
		c-2.421,0-4.373-1.953-4.373-4.357c0-0.352,0.033-0.717,0.133-1.068l19.933-34.539c0.332-0.417,0.667-0.919,0.935-1.519
		c0.033-0.083,0.084-0.151,0.116-0.234c0.085-0.151,0.168-0.317,0.252-0.451l0.016-0.049c1.119-1.703,3.389-2.454,5.427-1.552
		c0.334,0.15,0.65,0.352,0.951,0.602l10.332,17.928c1.069,1.868,3.071,3.022,5.227,3.022c2.152,0,4.156-1.154,5.224-3.022
		l20.185-34.906c0.566-0.719,0.882-1.42,1.065-1.82c0.086-0.217,0.218-0.433,0.335-0.651c0.033-0.065,0.085-0.133,0.101-0.198
		l0.117-0.219c1.569-2.487,4.34-4.022,7.293-4.022c1.221,0,2.372,0.25,3.507,0.751c0.784,0.352,1.553,0.852,2.254,1.535
		l20.099,34.807c2.772-3.021,5.86-5.774,9.197-8.197l-19.246-33.336c-0.25-0.386-0.534-0.784-0.834-1.119
		c-1.955-2.054-4.158-3.639-6.561-4.707c-2.672-1.204-5.509-1.787-8.416-1.787c-7.194,0-13.987,3.823-17.709,10
		c-0.067,0.117-0.135,0.234-0.201,0.352l-0.168,0.333c-0.232,0.401-0.433,0.783-0.602,1.135c-0.114,0.167-0.231,0.352-0.333,0.519
		l-13.403,23.137l-1.903,3.305l-5.526-9.599c-0.233-0.401-0.518-0.784-0.852-1.12c-1.519-1.617-3.273-2.87-5.225-3.738
		c-2.12-0.95-4.374-1.435-6.711-1.435c-5.742,0-11.118,3.056-14.089,7.979c-0.067,0.133-0.134,0.269-0.2,0.401l-0.018,0.034
		c-0.15,0.216-0.25,0.433-0.367,0.666c-0.15,0.186-0.283,0.367-0.367,0.567l-20.599,35.691c-0.185,0.3-0.317,0.636-0.452,0.968
		c-0.651,1.804-0.969,3.674-0.969,5.56c0,9.049,7.345,16.41,16.427,16.41h39.299c0.133,0,0.281,0,0.416,0c0.2,0,0.417,0,0.616,0
		c0,0,0.117,0,0.135,0c0.667,0,1.251-0.05,1.736-0.134c0.584,0.084,1.269,0.134,1.987,0.134h39.179
		C137.357,227.974,137.341,227.505,137.341,227.021z M96.91,227.256v-0.017c1.469-1.086,2.42-2.839,2.42-4.792
		C99.33,224.418,98.379,226.169,96.91,227.256z"/>
	<path fill="#959595" d="M159.41,223.733c-0.268,1.219-0.918,2.303-1.804,3.121C158.509,226.036,159.143,224.935,159.41,223.733z"/>
</g>
<g>
	<path fill="#959595" d="M139.546,243.147H23.459V89.533h160.574v78.844c4.323-1.001,8.849-1.534,13.472-1.534
		c1.553,0,3.105,0.065,4.624,0.198V80.469c0-4.974-4.057-9.032-9.031-9.032h-27.41h-27.562h-2.087h-87.99h-24.19h-9.447
		c-4.976,0-9.032,4.058-9.032,9.032v171.708c0,5.01,4.057,9.05,9.032,9.05h133.63C144.27,255.801,141.364,249.69,139.546,243.147z"
		/>
</g>
<g>
	<path fill="#959595" d="M253.813,52.308l-26.511-6.929l-26.675-6.979l-2.004-0.534l-85.12-22.269L90.08,9.471l-9.112-2.386
		c-4.841-1.27-9.783,1.636-11.034,6.459L54.141,73.926h18.665l12.335-47.043l155.366,40.631l-26.608,101.613
		c5.992,1.722,11.617,4.309,16.692,7.664l29.681-113.433C261.541,58.534,258.638,53.593,253.813,52.308z"/>
</g>
<path fill="#959595" d="M223.714,219.19l-21.235-22.602c-1.052-1.136-2.535-1.803-4.09-1.82c-1.584-0.032-3.07,0.567-4.189,1.67
	l-22.753,22.604c-2.253,2.252-2.286,5.892-0.05,8.163c2.27,2.269,5.91,2.269,8.18,0.033l12.92-12.838v39.095
	c0,3.188,2.588,5.777,5.775,5.777c3.189,0,5.776-2.59,5.776-5.777v-38.377l11.251,11.97c1.119,1.218,2.674,1.817,4.208,1.817
	c1.419,0,2.854-0.516,3.938-1.568C225.767,225.169,225.901,221.496,223.714,219.19z"/>
<text transform="matrix(1 0 0 1 24.3828 323.4531)"><tspan x="0" y="0" fill="#959595" font-family="'MyriadPro-BoldIt'" font-size="41.2417">3 MB. Máx.</tspan><tspan x="12.517" y="33.455" fill="#959595" font-family="'MyriadPro-BoldIt'" font-size="41.2417">  por foto.</tspan></text>
</svg>
